<svg width="105" height="105" viewBox="0 0 105 105" fill="none" xmlns="http://www.w3.org/2000/svg">
<rect width="104" height="104" rx="52" fill="white"/>
<circle cx="52.069" cy="52.069" r="51.1353" stroke="#0B3C49" stroke-width="1.86745"/>
<circle cx="52.069" cy="52.0691" r="48.9932" stroke="#0B3C49" stroke-width="0.878801"/>
<g clip-path="url(#clip0_104_82)">
<path d="M51.818 15.9346C49.9452 15.9346 48.4253 17.4545 48.4253 19.3273C48.4253 21.2 49.9452 26.1127 51.818 26.1127C53.6908 26.1127 55.2107 21.2 55.2107 19.3273C55.2107 17.4545 53.6908 15.9346 51.818 15.9346Z" fill="#D4A437"/>
<path d="M39.8215 20.9013C38.5006 22.2222 38.5006 24.3755 39.8215 25.6963C41.1424 27.0172 45.6931 29.4238 47.023 28.0939C48.3439 26.773 45.9464 22.2222 44.6255 20.8923C43.2956 19.5804 41.1514 19.5804 39.8215 20.9013Z" fill="#D4A437"/>
<path d="M45.0326 32.898C45.0326 31.0252 40.12 29.5053 38.2472 29.5053C36.3744 29.5053 34.8545 31.0252 34.8545 32.898C34.8545 34.7708 36.3744 36.2907 38.2472 36.2907C40.12 36.2907 45.0326 34.7708 45.0326 32.898Z" fill="#D4A437"/>
<path d="M39.8215 40.0995C38.5006 41.4204 38.5006 43.5736 39.8215 44.8945C41.1424 46.2154 43.2956 46.2154 44.6165 44.8945C45.9374 43.5736 48.3439 39.0228 47.014 37.6929C45.6931 36.372 41.1514 38.7695 39.8215 40.0995Z" fill="#D4A437"/>
<path d="M51.818 39.6835C49.9452 39.6835 48.4253 44.5961 48.4253 46.4689C48.4253 48.3416 49.9452 49.8616 51.818 49.8616C53.6908 49.8616 55.2107 48.3416 55.2107 46.4689C55.2107 44.5961 53.6908 39.6835 51.818 39.6835Z" fill="#D4A437"/>
<path d="M56.6134 37.6929C55.2925 39.0138 57.69 43.5645 59.0109 44.8945C60.3318 46.2154 62.485 46.2154 63.8059 44.8945C65.1268 43.5736 65.1268 41.4204 63.8059 40.0995C62.485 38.7695 57.9433 36.372 56.6134 37.6929Z" fill="#D4A437"/>
<path d="M65.3887 29.5053C63.5159 29.5053 58.6033 31.0252 58.6033 32.898C58.6033 34.7708 63.5159 36.2907 65.3887 36.2907C67.2614 36.2907 68.7814 34.7708 68.7814 32.898C68.7814 31.0252 67.2614 29.5053 65.3887 29.5053Z" fill="#D4A437"/>
<path d="M63.8145 25.6966C65.1354 24.3757 65.1354 22.2224 63.8145 20.9015C62.4936 19.5807 60.3404 19.5807 59.0195 20.9015C57.6986 22.2224 55.2921 26.7732 56.622 28.1031C57.952 29.433 62.4846 27.0265 63.8145 25.6966Z" fill="#D4A437"/>
<path d="M51.8179 37.3079C54.2535 37.3079 56.228 35.3334 56.228 32.8977C56.228 30.4621 54.2535 28.4876 51.8179 28.4876C49.3822 28.4876 47.4077 30.4621 47.4077 32.8977C47.4077 35.3334 49.3822 37.3079 51.8179 37.3079Z" fill="#D4A437"/>
</g>
<path d="M14.082 68.9055V56.8525H19.1292C20.4294 56.8525 21.4282 57.1008 22.1257 57.5975C22.8288 58.0885 23.1804 58.8055 23.1804 59.7486C23.1804 60.3457 23.0548 60.8339 22.8037 61.2134C22.5526 61.5872 22.2345 61.8718 21.8495 62.0671C21.4645 62.2568 21.0711 62.3796 20.6693 62.4354L20.6944 62.4019C21.5705 62.5414 22.2736 62.8762 22.8037 63.4063C23.3338 63.9364 23.5989 64.673 23.5989 65.6161C23.5989 66.4363 23.4063 67.0864 23.0213 67.5663C22.6363 68.0462 22.1257 68.3894 21.4896 68.5958C20.859 68.8023 20.1699 68.9055 19.4222 68.9055H14.082ZM16.2499 67.198H19.1376C19.7346 67.198 20.1978 67.1059 20.527 66.9218C20.8562 66.7321 21.085 66.4893 21.2134 66.1936C21.3417 65.8978 21.4059 65.5854 21.4059 65.2561C21.4059 64.8265 21.3082 64.4638 21.1129 64.168C20.9232 63.8723 20.633 63.6463 20.2424 63.49C19.8574 63.3338 19.3719 63.2557 18.786 63.2557H16.2499V67.198ZM16.2499 61.6151H18.9869C19.5728 61.6151 20.0527 61.4952 20.4266 61.2552C20.8004 61.0153 20.9874 60.6219 20.9874 60.075C20.9874 59.6286 20.8395 59.2659 20.5438 58.9869C20.248 58.7023 19.7458 58.56 19.0371 58.56H16.2499V61.6151ZM32.047 69.1148C31.0203 69.1148 30.1358 68.9334 29.3937 68.5707C28.6571 68.2024 28.0879 67.6779 27.6862 66.9971C27.29 66.3164 27.0919 65.5017 27.0919 64.553V56.8525H29.2598V64.4442C29.2598 65.3426 29.5053 66.0429 29.9963 66.5451C30.4874 67.0473 31.1709 67.2985 32.047 67.2985C32.9231 67.2985 33.6066 67.0446 34.0977 66.5368C34.5887 66.0234 34.8343 65.3008 34.8343 64.3689V56.8525H37.0021V64.553C37.0021 65.5017 36.804 66.3164 36.4079 66.9971C36.0117 67.6779 35.4425 68.2024 34.7003 68.5707C33.9638 68.9334 33.0793 69.1148 32.047 69.1148ZM44.3538 68.9055V58.6688H40.0767V56.8525H50.8156V58.6688H46.5217V68.9055H44.3538ZM53.9654 68.9055V56.8525H62.2518V58.6688H56.1333V61.657H61.3897V63.4231H56.1333V67.0892H62.369V68.9055H53.9654ZM64.6819 68.9055L69.4863 56.8525H72.0811L76.8688 68.9055H74.5419L70.7753 58.6102L67.0088 68.9055H64.6819ZM67.5445 65.3566V63.6072H73.9895V65.3566H67.5445ZM79.7843 68.9055V56.8525H81.9522V62.0336L87.2588 56.8525H90.0042L85.4844 61.2719L90.2386 68.9055H87.7024L83.9442 62.7869L81.9522 64.7372V68.9055H79.7843Z" fill="#0B3C49"/>
<line x1="26.4788" y1="72.0912" x2="77.1575" y2="72.0912" stroke="#D4A437" stroke-width="0.659101"/>
<path d="M29.2412 85.0799C28.5774 85.0799 27.9975 84.9699 27.5016 84.75C27.0097 84.526 26.6118 84.2041 26.3079 83.7842C26.004 83.3603 25.802 82.8504 25.702 82.2546L26.9857 81.9906C27.0137 82.6984 27.2197 83.2423 27.6036 83.6222C27.9875 84.0021 28.5234 84.1921 29.2112 84.1921C29.6271 84.1921 29.979 84.1241 30.267 83.9881C30.5589 83.8522 30.7808 83.6602 30.9328 83.4123C31.0888 83.1643 31.1668 82.8724 31.1668 82.5365C31.1668 82.0886 31.0368 81.7567 30.7768 81.5407C30.5209 81.3208 30.169 81.1608 29.7211 81.0608L28.5934 80.8089C28.3854 80.7609 28.1435 80.6949 27.8675 80.6109C27.5956 80.527 27.3316 80.403 27.0757 80.239C26.8198 80.0751 26.6058 79.8531 26.4339 79.5732C26.2659 79.2932 26.1819 78.9353 26.1819 78.4994C26.1819 77.9436 26.3239 77.4937 26.6078 77.1497C26.8957 76.8058 27.2677 76.5539 27.7236 76.3939C28.1834 76.234 28.6713 76.154 29.1872 76.154C29.7831 76.154 30.293 76.25 30.7169 76.4419C31.1448 76.6299 31.4887 76.8978 31.7486 77.2457C32.0126 77.5936 32.1905 78.0095 32.2825 78.4934L31.0168 78.7574C30.9848 78.3895 30.8948 78.0795 30.7469 77.8276C30.5989 77.5716 30.3909 77.3777 30.123 77.2457C29.8551 77.1098 29.5211 77.0418 29.1212 77.0418C28.7973 77.0418 28.4934 77.0898 28.2094 77.1857C27.9295 77.2817 27.7016 77.4317 27.5256 77.6356C27.3496 77.8396 27.2617 78.1055 27.2617 78.4334C27.2617 78.7774 27.3796 79.0533 27.6156 79.2612C27.8555 79.4652 28.2534 79.6312 28.8093 79.7591L29.949 80.0231C30.3529 80.1151 30.7349 80.253 31.0948 80.437C31.4547 80.6209 31.7466 80.8789 31.9706 81.2108C32.1945 81.5387 32.3065 81.9726 32.3065 82.5125C32.3065 83.0524 32.1825 83.5143 31.9346 83.8982C31.6906 84.2821 31.3387 84.576 30.8788 84.78C30.4229 84.9799 29.8771 85.0799 29.2412 85.0799ZM38.9961 85.0799C38.3243 85.0799 37.7424 84.9539 37.2505 84.702C36.7587 84.446 36.3767 84.0861 36.1048 83.6222C35.8369 83.1543 35.7029 82.6045 35.7029 81.9726V76.2979H36.7826V81.8766C36.7826 82.5885 36.9806 83.1523 37.3765 83.5682C37.7764 83.9841 38.3163 84.1921 38.9961 84.1921C39.676 84.1921 40.2138 83.9841 40.6098 83.5682C41.0097 83.1523 41.2096 82.5885 41.2096 81.8766V76.2979H42.2894V81.9726C42.2894 82.6045 42.1554 83.1543 41.8875 83.6222C41.6195 84.0861 41.2376 84.446 40.7417 84.702C40.2498 84.9539 39.668 85.0799 38.9961 85.0799ZM45.6018 84.9359V84.0961H46.7475V77.1377H45.6018V76.2979H48.973V77.1377H47.8273V84.0961H48.973V84.9359H45.6018ZM54.7089 84.9359V77.1857H51.6196V76.2979H58.8899V77.1857H55.7886V84.9359H54.7089ZM61.9504 84.9359V76.2979H67.6431V77.1857H63.0301V79.8971H67.0672V80.7849H63.0301V84.0481H67.727V84.9359H61.9504ZM73.7748 85.0799C73.111 85.0799 72.5311 84.9699 72.0352 84.75C71.5434 84.526 71.1454 84.2041 70.8415 83.7842C70.5376 83.3603 70.3356 82.8504 70.2357 82.2546L71.5194 81.9906C71.5474 82.6984 71.7533 83.2423 72.1372 83.6222C72.5211 84.0021 73.057 84.1921 73.7448 84.1921C74.1607 84.1921 74.5127 84.1241 74.8006 83.9881C75.0925 83.8522 75.3145 83.6602 75.4664 83.4123C75.6224 83.1643 75.7004 82.8724 75.7004 82.5365C75.7004 82.0886 75.5704 81.7567 75.3105 81.5407C75.0545 81.3208 74.7026 81.1608 74.2547 81.0608L73.127 80.8089C72.919 80.7609 72.6771 80.6949 72.4012 80.6109C72.1292 80.527 71.8653 80.403 71.6093 80.239C71.3534 80.0751 71.1394 79.8531 70.9675 79.5732C70.7995 79.2932 70.7155 78.9353 70.7155 78.4994C70.7155 77.9436 70.8575 77.4937 71.1414 77.1497C71.4294 76.8058 71.8013 76.5539 72.2572 76.3939C72.7171 76.234 73.205 76.154 73.7208 76.154C74.3167 76.154 74.8266 76.25 75.2505 76.4419C75.6784 76.6299 76.0223 76.8978 76.2822 77.2457C76.5462 77.5936 76.7241 78.0095 76.8161 78.4934L75.5504 78.7574C75.5184 78.3895 75.4284 78.0795 75.2805 77.8276C75.1325 77.5716 74.9246 77.3777 74.6566 77.2457C74.3887 77.1098 74.0548 77.0418 73.6549 77.0418C73.3309 77.0418 73.027 77.0898 72.7431 77.1857C72.4631 77.2817 72.2352 77.4317 72.0592 77.6356C71.8833 77.8396 71.7953 78.1055 71.7953 78.4334C71.7953 78.7774 71.9133 79.0533 72.1492 79.2612C72.3892 79.4652 72.7871 79.6312 73.3429 79.7591L74.4827 80.0231C74.8866 80.1151 75.2685 80.253 75.6284 80.437C75.9883 80.6209 76.2802 80.8789 76.5042 81.2108C76.7281 81.5387 76.8401 81.9726 76.8401 82.5125C76.8401 83.0524 76.7161 83.5143 76.4682 83.8982C76.2243 84.2821 75.8723 84.576 75.4125 84.78C74.9566 84.9799 74.4107 85.0799 73.7748 85.0799Z" fill="#0B3C49"/>
<defs>
<clipPath id="clip0_104_82">
<rect width="35.7126" height="35.7126" fill="white" transform="translate(33.9617 15.0413)"/>
</clipPath>
</defs>
</svg>
